<svg aria-hidden="true" style="position: absolute; width: 0; height: 0; overflow: hidden;" version="1.1" xmlns="http://www.w3.org/2000/svg" xmlns:xlink="http://www.w3.org/1999/xlink">
<defs>
<symbol id="icon-Back-Arrow" viewBox="0 0 15 32">
<path d="M14.58 30.72c0.582-0.498 0.641-1.363 0.132-1.932l-11.45-12.788 11.45-12.788c0.509-0.569 0.45-1.434-0.132-1.932s-1.467-0.44-1.977 0.129l-12.257 13.69c-0.462 0.516-0.462 1.287 0 1.803l12.257 13.69c0.509 0.569 1.394 0.627 1.977 0.129z"></path>
</symbol>
<symbol id="icon-Logo" viewBox="0 0 235 32">
<path fill="#262626" style="fill: var(--color1, #262626)" d="M11.959 1.166c1.55 0 2.982 0.374 4.297 1.12s2.347 1.757 3.095 3.033c0.748 1.276 1.122 2.672 1.122 4.191 0 2.306-0.831 4.274-2.491 5.902s-3.669 2.442-6.022 2.442h-6.935v11.802h-5.024v-28.49h11.959zM11.959 12.928c0.97 0 1.792-0.331 2.471-0.996s1.016-1.471 1.016-2.422c0-0.95-0.34-1.757-1.016-2.422-0.678-0.665-1.501-0.996-2.471-0.996h-6.935v6.838l6.935-0.002z"></path>
<path fill="#262626" style="fill: var(--color1, #262626)" d="M40.777 1.166h5.024v28.49h-5.024v-11.762h-12.167v11.762h-5.024v-28.49h5.024v11.762h12.167v-11.762z"></path>
<path fill="#262626" style="fill: var(--color1, #262626)" d="M56.163 3.079c2.228-1.274 4.658-1.913 7.288-1.913s5.060 0.637 7.288 1.913 3.993 3.005 5.295 5.189c1.3 2.184 1.952 4.565 1.952 7.143s-0.65 4.959-1.952 7.143c-1.302 2.184-3.066 3.915-5.295 5.189-2.228 1.276-4.657 1.913-7.288 1.913s-5.060-0.637-7.288-1.913c-2.228-1.274-3.995-3.005-5.295-5.189-1.302-2.184-1.952-4.565-1.952-7.143s0.65-4.959 1.952-7.143c1.3-2.184 3.066-3.913 5.295-5.189zM56.723 22.004c1.855 1.818 4.096 2.728 6.726 2.728s4.872-0.908 6.726-2.728c1.855-1.818 2.783-4.014 2.783-6.593s-0.928-4.775-2.783-6.593c-1.854-1.818-4.097-2.727-6.726-2.727s-4.872 0.91-6.726 2.727c-1.854 1.818-2.782 4.016-2.782 6.593s0.926 4.775 2.782 6.593z"></path>
<path fill="#262626" style="fill: var(--color1, #262626)" d="M79.024 1.166h20.472v4.924h-7.724v23.566h-5.024v-23.566h-7.724v-4.924z"></path>
<path fill="#262626" style="fill: var(--color1, #262626)" d="M107.78 3.079c2.228-1.274 4.657-1.913 7.288-1.913s5.060 0.637 7.288 1.913 3.993 3.005 5.295 5.189c1.3 2.184 1.952 4.565 1.952 7.143s-0.65 4.959-1.952 7.143c-1.302 2.184-3.067 3.915-5.295 5.189-2.228 1.276-4.658 1.913-7.288 1.913s-5.060-0.637-7.288-1.913c-2.229-1.274-3.995-3.005-5.295-5.189-1.302-2.184-1.952-4.565-1.952-7.143s0.65-4.959 1.952-7.143c1.3-2.184 3.066-3.913 5.295-5.189zM108.34 22.004c1.855 1.818 4.096 2.728 6.727 2.728s4.872-0.908 6.726-2.728c1.854-1.818 2.782-4.014 2.782-6.593s-0.928-4.775-2.782-6.593c-1.855-1.818-4.098-2.727-6.726-2.727s-4.872 0.91-6.727 2.727c-1.854 1.818-2.782 4.016-2.782 6.593s0.926 4.775 2.782 6.593z"></path>
<path fill="#30c" style="fill: var(--color2, #30c)" d="M140.482 0.532c2.619-0.225 5.097 0.203 7.431 1.284s4.245 2.654 5.736 4.718c1.49 2.064 2.351 4.381 2.58 6.948 0.229 2.569-0.207 4.996-1.31 7.281-1.103 2.287-2.708 4.162-4.814 5.622-2.106 1.462-4.47 2.304-7.089 2.528l-8.647 0.742-2.533-28.382 8.645-0.742zM142.577 24.008c2.619-0.225 4.765-1.32 6.439-3.289 1.672-1.969 2.401-4.237 2.185-6.806s-1.328-4.679-3.337-6.333c-2.011-1.652-4.325-2.366-6.945-2.142l-3.639 0.313 1.657 18.57 3.639-0.313z"></path>
<path fill="#30c" style="fill: var(--color2, #30c)" d="M180.549 10.060c-0.143 1.595-0.701 3.018-1.672 4.269-0.973 1.252-2.194 2.167-3.664 2.749l3.545 13.051-5.336-0.457-3.297-12.090-5.708-0.49-1.046 11.718-5.005-0.429 2.531-28.382 11.914 1.022c2.343 0.201 4.271 1.184 5.781 2.946 1.511 1.764 2.162 3.795 1.958 6.092zM171.765 12.74c0.966 0.083 1.815-0.177 2.55-0.783 0.735-0.604 1.144-1.372 1.227-2.306 0.082-0.932-0.182-1.766-0.799-2.499s-1.405-1.142-2.371-1.225l-6.909-0.593-0.609 6.812 6.911 0.593z"></path>
<path fill="#30c" style="fill: var(--color2, #30c)" d="M189.598 23.323l-4.914 4.302 23.431 1.32-4.397-4.827-14.12-0.796z"></path>
<path fill="#30c" style="fill: var(--color2, #30c)" d="M188.738 7.683l-4.386-4.814-1.347 22.966 4.923-4.309 0.811-13.843z"></path>
<path fill="#30c" style="fill: var(--color2, #30c)" d="M204.691 6.851l4.911-4.3-23.417-1.32 4.397 4.825 14.108 0.796z"></path>
<path fill="#30c" style="fill: var(--color2, #30c)" d="M206.359 8.65l-0.811 13.826 4.388 4.816 1.346-22.953-4.922 4.311z"></path>
<path fill="#30c" style="fill: var(--color2, #30c)" d="M225.662 0.339c1.538-0.199 3.006-0.011 4.41 0.56 1.402 0.573 2.56 1.442 3.469 2.611 0.911 1.169 1.468 2.506 1.672 4.013 0.307 2.287-0.254 4.342-1.685 6.169-1.429 1.827-3.311 2.891-5.643 3.191l-6.874 0.888 1.572 11.703-4.981 0.643-3.793-28.245 11.853-1.532zM227.23 12.001c0.96-0.123 1.732-0.558 2.315-1.304 0.585-0.746 0.813-1.589 0.687-2.53s-0.572-1.698-1.333-2.271c-0.76-0.573-1.623-0.796-2.583-0.672l-6.874 0.888 0.911 6.779 6.876-0.889z"></path>
</symbol>
<symbol id="icon-plus" viewBox="0 0 32 32">
<path d="M31 12h-11v-11c0-0.552-0.448-1-1-1h-6c-0.552 0-1 0.448-1 1v11h-11c-0.552 0-1 0.448-1 1v6c0 0.552 0.448 1 1 1h11v11c0 0.552 0.448 1 1 1h6c0.552 0 1-0.448 1-1v-11h11c0.552 0 1-0.448 1-1v-6c0-0.552-0.448-1-1-1z"></path>
</symbol>
<symbol id="icon-editor" viewBox="0 0 32 32">
<path fill="#30c" style="fill: var(--color1, #30c)" d="M31.135 15.784c0 8.359-6.776 15.135-15.135 15.135s-15.135-6.776-15.135-15.135c0-8.359 6.776-15.135 15.135-15.135s15.135 6.776 15.135 15.135z"></path>
<path fill="#fff" style="fill: var(--color2, #fff)" d="M16 1.297c-8.001 0-14.486 6.486-14.486 14.486s6.486 14.486 14.486 14.486c8.001 0 14.486-6.486 14.486-14.486s-6.486-14.486-14.486-14.486zM0.216 15.784c0-8.717 7.067-15.784 15.784-15.784s15.784 7.067 15.784 15.784c0 8.717-7.067 15.784-15.784 15.784s-15.784-7.067-15.784-15.784z"></path>
<path fill="#fff" style="fill: var(--color2, #fff)" d="M9.635 20.291l0.77 4.72 4.473-1.693 8.095-14.021-5.243-3.027-8.095 14.021zM18.187 7.902l3.148 1.818-1.777 3.077-3.148-1.818 1.777-3.077zM15.818 12.005l3.148 1.818-4.927 8.535-2.682 1.015-0.462-2.83 4.93-8.539-0.007 0.002z"></path>
</symbol>
<symbol id="icon-notify" viewBox="0 0 35 32">
<path fill="#30c" style="fill: var(--color1, #30c)" d="M27.595 4.138l-25.285 0.134c-0.305 0-0.606 0.065-0.888 0.185s-0.537 0.294-0.751 0.511c-0.214 0.218-0.384 0.475-0.5 0.758s-0.174 0.587-0.17 0.892l0.094 18.379c0 0.305 0.065 0.606 0.181 0.888 0.12 0.283 0.29 0.537 0.508 0.751s0.475 0.384 0.758 0.5c0.283 0.116 0.584 0.174 0.892 0.17l9.207-0.047c0.936 1.291 2.44 3.329 3.271 4.475 0.062 0.087 0.145 0.156 0.243 0.203s0.203 0.065 0.308 0.062c0.105-0.007 0.21-0.040 0.301-0.094s0.167-0.134 0.221-0.225l2.553-4.457 9.185-0.051c0.305 0 0.609-0.062 0.888-0.181 0.283-0.12 0.537-0.29 0.751-0.508s0.384-0.475 0.5-0.758c0.116-0.283 0.174-0.588 0.17-0.892l-0.083-18.386c0-0.308-0.062-0.613-0.181-0.896s-0.294-0.54-0.515-0.754c-0.218-0.214-0.479-0.384-0.765-0.497s-0.591-0.17-0.899-0.167l0.007 0.004z"></path>
<path fill="#fff" style="fill: var(--color2, #fff)" d="M12.761 19.735c0.054 0.468 0.007 0.943-0.131 1.393s-0.37 0.867-0.678 1.226c0.66-0.062 1.284-0.334 1.78-0.772s0.841-1.026 0.979-1.675c0 0 5.983 0.714 6.694-3.329 0.758-4.261-3.619-5.487-5.483-5.483-3.26 0-5.94 1.777-6.085 4.834s2.919 3.811 2.919 3.811l0.004-0.004z"></path>
<path fill="#fe5f55" style="fill: var(--color3, #fe5f55)" d="M34.902 5.403c0.007 1.077-0.305 2.132-0.899 3.028-0.591 0.899-1.436 1.603-2.43 2.020-0.99 0.417-2.085 0.533-3.14 0.326-1.055-0.203-2.031-0.718-2.796-1.476s-1.287-1.726-1.505-2.778c-0.214-1.055-0.112-2.151 0.294-3.144 0.406-0.997 1.102-1.849 1.994-2.451s1.944-0.925 3.021-0.928c1.44-0.007 2.825 0.558 3.847 1.574 1.023 1.012 1.603 2.39 1.614 3.83z"></path>
</symbol>
<symbol id="icon-arrow-bottom" viewBox="0 0 64 32">
<path fill="#6d6d6d" style="fill: var(--color1, #6d6d6d)" d="M0.795 1.234c1.212-1.455 3.374-1.651 4.829-0.439l25.234 21.028 25.234-21.028c1.455-1.212 3.616-1.016 4.829 0.439s1.016 3.617-0.439 4.829l-27.429 22.857c-1.271 1.060-3.118 1.060-4.39 0l-27.429-22.857c-1.455-1.212-1.651-3.374-0.439-4.829z"></path>
</symbol>
<symbol id="icon-close" viewBox="0 0 31 32">
<path fill="none" stroke="#fff" style="stroke: var(--color1, #fff)" stroke-linejoin="miter" stroke-linecap="butt" stroke-miterlimit="4" stroke-width="1.5484" d="M23.948 7.962l-15.567 15.567M24.045 23.529l-15.567-15.567"></path>
</symbol>
<symbol id="icon-Email" viewBox="0 0 38 32">
<path d="M34.286 0.762h-30.476c-2.095 0-3.81 1.714-3.81 3.81v22.857c0 2.095 1.714 3.81 3.81 3.81h30.476c2.095 0 3.81-1.714 3.81-3.81v-22.857c0-2.095-1.714-3.81-3.81-3.81zM3.81 2.667h30.476c0.668 0 1.254 0.347 1.594 0.869l-16.832 16.832-16.832-16.832c0.34-0.522 0.927-0.869 1.594-0.869zM34.286 29.333h-30.476c-1.050 0-1.905-0.854-1.905-1.905v-21.51l17.143 17.143 17.143-17.143v21.51c0 1.050-0.854 1.905-1.905 1.905z"></path>
</symbol>
<symbol id="icon-Phone" viewBox="0 0 27 32">
<path d="M26.122 24.655l-3.063-4.275c-1.421-1.984-3.116-0.801-4.238-0.017-1.555 1.087-2.358 1.532-3.604-0.207l-5.099-7.117c-1.246-1.739-0.578-2.372 0.927-3.528 1.085-0.834 2.725-2.094 1.303-4.079l-3.062-4.275c-0.823-1.148-2.283-1.502-3.256-0.789l-4.514 3.309c-1.186 0.869-1.68 2.356-1.468 4.418 0.729 7.098 10.238 20.371 16.68 23.281 0.923 0.417 1.767 0.625 2.528 0.625 0.783 0 1.478-0.22 2.079-0.661l4.514-3.309c0.972-0.713 1.095-2.227 0.272-3.375v0zM24.93 26.748l-4.514 3.309c-0.7 0.513-1.726 0.471-3.050-0.128-5.955-2.69-15.087-15.437-15.761-21.997-0.15-1.458 0.129-2.458 0.83-2.971l4.514-3.309c0.234-0.172 0.741-0.022 1.069 0.436l3.062 4.275c0.438 0.611 0.403 0.823-0.983 1.888-1.29 0.991-3.448 2.649-1.248 5.719l5.099 7.117c2.2 3.070 4.43 1.511 5.762 0.581 1.431-1.001 1.642-0.967 2.079-0.356l3.063 4.275c0.328 0.458 0.311 0.991 0.077 1.163l0-0z"></path>
</symbol>
<symbol id="icon-checkbox" viewBox="0 0 32 32">
<path fill="none"   stroke-linejoin="miter" stroke-linecap="butt" stroke-miterlimit="4" stroke-width="1.6" d="M8 0.8h16c3.976 0 7.2 3.224 7.2 7.2v16c0 3.976-3.224 7.2-7.2 7.2h-16c-3.976 0-7.2-3.224-7.2-7.2v-16c0-3.976 3.224-7.2 7.2-7.2z"></path>
<path  d="M13.867 23.364l-8.267-8.598 1.73-1.663 6.502 6.762 10.951-11.864 1.764 1.628-12.679 13.736z"></path>
</symbol>
<symbol id="icon-addAvatar" viewBox="0 0 32 32">
<path fill="#30c" style="fill: var(--color1, #30c); stroke: var(--color1, #30c)" stroke="#30c" stroke-linejoin="miter" stroke-linecap="butt" stroke-miterlimit="4" stroke-width="0.7619" d="M31.619 16c0 8.626-6.993 15.619-15.619 15.619s-15.619-6.993-15.619-15.619c0-8.626 6.993-15.619 15.619-15.619s15.619 6.993 15.619 15.619z"></path>
<path fill="none" stroke="#fff" style="stroke: var(--color2, #fff)" stroke-linejoin="miter" stroke-linecap="butt" stroke-miterlimit="4" stroke-width="1.5238" d="M16 9.143v13.714"></path>
<path fill="none" stroke="#fff" style="stroke: var(--color2, #fff)" stroke-linejoin="miter" stroke-linecap="butt" stroke-miterlimit="4" stroke-width="1.5238" d="M9.143 16h13.714"></path>
</symbol>

</defs>
</svg>
