<svg aria-hidden="true" style="position: absolute; width: 0; height: 0; overflow: hidden;" version="1.1" xmlns="http://www.w3.org/2000/svg" xmlns:xlink="http://www.w3.org/1999/xlink">
<defs>
<symbol id="icon-climate-neutral" viewBox="0 0 80 32">
<path fill="#fff" style="fill: var(--color1, #fff)" d="M24.128 13.734l0.038 0.113 4.953-2.026c1.126-0.45 1.651-1.764 1.201-2.889l-0.075-0.113-4.953 2.026c-1.088 0.45-1.651 1.764-1.163 2.889z"></path>
<path fill="#fff" style="fill: var(--color1, #fff)" d="M22.627 10.769l0.113 0.113 3.79-3.79c0.863-0.863 0.863-2.251 0-3.114l-0.113-0.113-3.79 3.752c-0.863 0.863-0.863 2.289 0 3.152z"></path>
<path fill="#fff" style="fill: var(--color1, #fff)" d="M48.368 18.574h-3.077v-1.463h3.002v-1.276h-3.002v-1.351h3.077v-1.276h-4.465v6.642h4.465v-1.276z"></path>
<path fill="#fff" style="fill: var(--color1, #fff)" d="M48.255 9.681h-2.814v-5.366h-1.501v6.679h4.315v-1.313z"></path>
<path fill="#fff" style="fill: var(--color1, #fff)" d="M20.15 8.63l0.113 0.038 2.064-4.953c0.45-1.126-0.075-2.401-1.201-2.889l-0.113-0.038-2.064 4.953c-0.45 1.126 0.075 2.402 1.201 2.889z"></path>
<path fill="#fff" style="fill: var(--color1, #fff)" d="M7.843 18.199l-0.038-0.15-4.953 2.026c-1.126 0.45-1.651 1.764-1.201 2.889l0.038 0.075 4.953-1.989c1.126-0.413 1.651-1.726 1.201-2.852z"></path>
<path fill="#fff" style="fill: var(--color1, #fff)" d="M9.306 21.126l-0.113-0.113-3.79 3.827c-0.863 0.863-0.863 2.251 0 3.114l0.113 0.113 3.79-3.79c0.863-0.863 0.863-2.289 0-3.152z"></path>
<path fill="#fff" style="fill: var(--color1, #fff)" d="M50.657 4.315h-1.501v6.679h1.501v-6.679z"></path>
<path fill="#fff" style="fill: var(--color1, #fff)" d="M7.655 9.306c0.863 0.863 2.251 0.863 3.114 0l0.113-0.113-3.79-3.79c-0.863-0.863-2.251-0.863-3.114 0l-0.113 0.113 3.79 3.79z"></path>
<path fill="#fff" style="fill: var(--color1, #fff)" d="M7.58 14.935v-0.15h-5.366c-1.201 0-2.214 0.976-2.214 2.214v0.15h5.366c1.238 0 2.214-1.013 2.214-2.214z"></path>
<path fill="#fff" style="fill: var(--color1, #fff)" d="M6.604 13.134c0.3 0 0.563-0.075 0.825-0.15 0.525-0.225 0.976-0.638 1.201-1.201l0.038-0.113-4.953-2.064c-1.126-0.45-2.401 0.075-2.889 1.201v0.075l4.953 2.064c0.263 0.113 0.563 0.188 0.826 0.188z"></path>
<path fill="#fff" style="fill: var(--color1, #fff)" d="M62.514 9.869h2.927l0.413 1.126h1.614l-2.589-6.642v-0.038h-1.839l-2.589 6.679h1.651l0.413-1.126zM63.978 5.704l1.051 2.889h-2.101l1.051-2.889z"></path>
<path fill="#fff" style="fill: var(--color1, #fff)" d="M78.086 9.719h-3.265v-1.463h3.19v-1.276h-3.19v-1.351h3.265v-1.313h-4.766v6.679h4.766v-1.276z"></path>
<path fill="#fff" style="fill: var(--color1, #fff)" d="M68.856 10.995h1.501v-5.366h1.951v-1.313h-5.366v1.313h1.914v5.366z"></path>
<path fill="#fff" style="fill: var(--color1, #fff)" d="M70.844 13.208l-2.402 6.642h1.501l0.375-1.126h2.702l0.375 1.126h1.501l-2.401-6.604v-0.038h-1.651zM72.608 17.449h-1.951l0.976-2.889 0.976 2.889z"></path>
<path fill="#fff" style="fill: var(--color1, #fff)" d="M49.681 13.208v3.978c0 1.764 1.013 2.777 2.814 2.777 1.764 0 2.777-1.013 2.777-2.777v-3.978h-1.388v3.94c0 0.938-0.488 1.501-1.388 1.501s-1.388-0.525-1.388-1.501v-3.94h-1.426z"></path>
<path fill="#fff" style="fill: var(--color1, #fff)" d="M75.948 13.208v6.642h3.977v-1.313h-2.627v-5.328h-1.351z"></path>
<path fill="#fff" style="fill: var(--color1, #fff)" d="M59.587 19.85v-5.328h1.801v-1.313h-4.991v1.313h1.801v5.328h1.388z"></path>
<path fill="#fff" style="fill: var(--color1, #fff)" d="M67.58 15.348c0-0.075 0-0.15 0-0.225-0.038-1.126-0.976-1.989-2.101-1.914h-2.927v6.642h1.388v-2.364h0.901l1.201 2.364h1.576l-1.388-2.514c0.675-0.188 1.351-0.788 1.351-1.989zM65.253 16.211h-1.351v-1.726h1.351c0.488 0 0.863 0.375 0.863 0.863s-0.375 0.863-0.863 0.863z"></path>
<path fill="#fff" style="fill: var(--color1, #fff)" d="M53.771 6.417l1.801 4.54v0.038h0.675l1.801-4.578v4.578h1.501v-6.679h-2.064l-1.576 4.090-1.576-4.053h-2.064v6.642h1.501v-4.578z"></path>
<path fill="#fff" style="fill: var(--color1, #fff)" d="M11.783 23.265l-0.113-0.038-2.064 4.953c-0.45 1.126 0.075 2.402 1.201 2.889l0.113 0.038 2.064-4.953c0.45-1.126-0.075-2.402-1.201-2.889z"></path>
<path fill="#fff" style="fill: var(--color1, #fff)" d="M49.081 28.218c0-0.038 0-0.075 0-0.113-0.038-0.6-0.563-1.051-1.163-1.013h-1.463v3.452h0.713v-1.238h0.413l0.75 1.238h0.863l-0.863-1.313c0.45-0.113 0.75-0.525 0.75-1.013zM47.843 28.668h-0.675v-0.901h0.675c0.038 0 0.038 0 0.075 0 0.225 0.038 0.413 0.225 0.413 0.488-0.038 0.225-0.263 0.413-0.488 0.413z"></path>
<path fill="#fff" style="fill: var(--color1, #fff)" d="M61.726 27.092v3.452h0.713v-3.452h-0.713z"></path>
<path fill="#fff" style="fill: var(--color1, #fff)" d="M57.636 30.545h0.713v-1.426h1.651v-0.638h-1.651v-0.713h1.688v-0.675h-2.401v3.452z"></path>
<path fill="#fff" style="fill: var(--color1, #fff)" d="M8.931 1.576l-0.113 0.038 2.026 4.953c0.225 0.525 0.638 0.976 1.201 1.201 0.263 0.113 0.563 0.188 0.863 0.188s0.563-0.075 0.826-0.188l0.15-0.038-2.026-4.953c-0.488-1.126-1.801-1.651-2.927-1.201z"></path>
<path fill="#fff" style="fill: var(--color1, #fff)" d="M50.582 27.768h0.976v2.777h0.75v-2.777h0.976v-0.675h-2.702v0.675z"></path>
<path fill="#fff" style="fill: var(--color1, #fff)" d="M80 23.115h-42.626v0.826h42.626v-0.826z"></path>
<path fill="#fff" style="fill: var(--color1, #fff)" d="M64.353 30.545h2.402v-0.675h-1.651v-0.75h1.614v-0.638h-1.614v-0.713h1.651v-0.675h-2.402v3.452z"></path>
<path fill="#fff" style="fill: var(--color1, #fff)" d="M42.252 30.545h2.402v-0.675h-1.689v-0.75h1.651v-0.638h-1.651v-0.713h1.689v-0.675h-2.402v3.452z"></path>
<path fill="#fff" style="fill: var(--color1, #fff)" d="M69.831 27.092h-1.276v3.452h1.276c0.976 0 1.726-0.788 1.726-1.726s-0.788-1.726-1.726-1.726zM69.831 29.907h-0.525v-2.139h0.525c0.038 0 0.075 0 0.15 0 0.525 0.038 0.938 0.525 0.901 1.051 0 0.038 0 0.075 0 0.113-0.038 0.563-0.525 0.976-1.051 0.976z"></path>
<path fill="#fff" style="fill: var(--color1, #fff)" d="M55.685 27.092h-0.713v3.452h0.713v-3.452z"></path>
<path fill="#fff" style="fill: var(--color1, #fff)" d="M23.302 20.113l-0.075 0.113 4.991 2.101c0.263 0.113 0.563 0.15 0.826 0.15 0.901 0 1.689-0.525 2.026-1.351l0.038-0.113-4.953-2.064c-1.088-0.488-2.364 0.038-2.852 1.163z"></path>
<path fill="#fff" style="fill: var(--color1, #fff)" d="M24.278 22.589c-0.863-0.863-2.251-0.863-3.114 0l-0.113 0.113 3.79 3.79c0.863 0.863 2.251 0.863 3.114 0l0.113-0.113-3.79-3.79z"></path>
<path fill="#fff" style="fill: var(--color1, #fff)" d="M21.088 25.291c-0.45-1.126-1.726-1.651-2.852-1.201l-0.15 0.038 1.989 4.953c0.225 0.525 0.638 0.976 1.201 1.201 0.263 0.113 0.563 0.188 0.863 0.188s0.563-0.075 0.826-0.188l0.15-0.038-2.026-4.953z"></path>
<path fill="#fff" style="fill: var(--color1, #fff)" d="M14.934 0h-0.15v5.366c0 1.201 0.976 2.176 2.214 2.176h0.15v-5.366c0-1.201-1.013-2.176-2.214-2.176z"></path>
<path fill="#fff" style="fill: var(--color1, #fff)" d="M14.934 24.315h-0.15v5.366c0 1.238 0.976 2.214 2.214 2.214h0.15v-5.366c0-1.201-1.013-2.214-2.214-2.214z"></path>
<path fill="#fff" style="fill: var(--color1, #fff)" d="M24.353 16.998v0.113h5.366c1.238 0 2.214-1.013 2.214-2.214v-0.113h-5.366c-1.238 0-2.214 1.013-2.214 2.214z"></path>
<path fill="#fff" style="fill: var(--color1, #fff)" d="M39.888 11.144c1.201 0.038 2.289-0.6 2.852-1.651l0.038-0.038-1.276-0.6v0.038c-0.3 0.6-0.901 0.938-1.576 0.938-0.038 0-0.075 0-0.075 0-1.126-0.075-1.989-1.013-1.914-2.139 0-0.038 0-0.038 0-0.075 0-1.126 0.901-2.026 1.989-2.064 0.675 0 1.276 0.375 1.576 0.938v0.038l1.276-0.638v-0.038c-0.563-1.051-1.689-1.689-2.852-1.651-0.075 0-0.15 0-0.225 0-1.876 0.038-3.34 1.576-3.302 3.452 0 0.075 0 0.15 0 0.225 0.075 1.876 1.651 3.34 3.49 3.265z"></path>
<path fill="#fff" style="fill: var(--color1, #fff)" d="M38.162 15.535l2.889 4.315h1.313v-6.642h-1.388v4.165l-2.777-4.165h-1.388l-0.038 6.642h1.388v-4.315z"></path>
<path fill="#fff" style="fill: var(--color1, #fff)" d="M39.175 27.73c0.3 0 0.6 0.15 0.75 0.413l0.075 0.113 0.638-0.338-0.075-0.113c-0.3-0.488-0.825-0.75-1.388-0.75-0.976 0-1.801 0.788-1.801 1.801s0.788 1.801 1.801 1.801c0.563 0 1.088-0.263 1.388-0.75l0.075-0.075-0.638-0.338-0.075 0.113c-0.15 0.263-0.45 0.413-0.75 0.413-0.488-0.075-0.901-0.45-0.938-0.938-0.113-0.675 0.338-1.238 0.938-1.351z"></path>
</symbol>
</defs>
</svg>
